<svg width="75" height="20" viewBox="0 0 75 20" fill="none" xmlns="http://www.w3.org/2000/svg">
<path d="M14.4552 19.252L12.8559 17.404C12.1319 17.9 11.3521 18.288 10.5167 18.568C9.68121 18.848 8.82188 18.988 7.93869 18.988C6.80088 18.988 5.7665 18.764 4.83557 18.316C3.90463 17.86 3.11692 17.236 2.47242 16.444C1.82793 15.644 1.36644 14.716 1.08795 13.66C0.809469 12.604 0.753771 11.476 0.920862 10.276C1.08795 9.07599 1.45794 7.95199 2.03082 6.90399C2.60371 5.84799 3.32379 4.91999 4.19107 4.11999C5.05836 3.31999 6.02112 2.69599 7.07936 2.24799C8.1376 1.79199 9.23563 1.56399 10.3734 1.56399C11.5113 1.56399 12.5416 1.79199 13.4646 2.24799C14.3956 2.69599 15.1833 3.31999 15.8278 4.11999C16.4723 4.91999 16.9338 5.84799 17.2122 6.90399C17.4907 7.95199 17.5464 9.07599 17.3793 10.276C17.252 11.212 16.9934 12.104 16.6036 12.952C16.2216 13.792 15.7442 14.568 15.1713 15.28L16.8064 17.188L14.4552 19.252ZM8.34448 16.06C8.80597 16.06 9.26746 15.992 9.72895 15.856C10.1984 15.712 10.636 15.512 11.0418 15.256L9.74088 13.732L12.0921 11.656L13.3095 13.096C13.6198 12.68 13.8744 12.232 14.0733 11.752C14.2722 11.272 14.4035 10.78 14.4672 10.276C14.5786 9.47599 14.5428 8.72799 14.3598 8.03199C14.1847 7.33599 13.8903 6.72399 13.4766 6.19599C13.0628 5.65999 12.5536 5.24399 11.9489 4.94799C11.3521 4.64399 10.6917 4.49199 9.96765 4.49199C9.22768 4.49199 8.51555 4.64399 7.83127 4.94799C7.14699 5.25199 6.52239 5.67199 5.95746 6.20799C5.40049 6.73599 4.93105 7.34799 4.54913 8.04399C4.17516 8.73999 3.93646 9.48399 3.83302 10.276C3.72163 11.068 3.75345 11.816 3.9285 12.52C4.11151 13.216 4.40988 13.832 4.82363 14.368C5.23738 14.896 5.74263 15.312 6.33939 15.616C6.9441 15.912 7.61246 16.06 8.34448 16.06Z" fill="url(#paint0_linear_103_668)"/>
<path d="M18.7521 14.308L19.8023 6.74799H22.7145L21.7597 13.54C21.704 14.012 21.7637 14.444 21.9387 14.836C22.1138 15.22 22.3763 15.528 22.7264 15.76C23.0845 15.984 23.4943 16.096 23.9557 16.096C24.4252 16.096 24.8668 15.984 25.2805 15.76C25.7022 15.528 26.0523 15.22 26.3308 14.836C26.6173 14.444 26.7923 14.012 26.856 13.54L27.8108 6.74799H30.7229L29.064 18.748H26.1518L26.2831 17.656C25.8136 18.088 25.2766 18.432 24.6719 18.688C24.0751 18.936 23.4545 19.06 22.81 19.06C21.9427 19.06 21.1789 18.848 20.5184 18.424C19.866 17.992 19.3767 17.42 19.0504 16.708C18.7322 15.988 18.6327 15.188 18.7521 14.308Z" fill="url(#paint1_linear_103_668)"/>
<path d="M33.1239 6.74799H36.0361L34.3652 18.748H31.453L33.1239 6.74799ZM34.8187 5.19999C34.3891 5.19999 34.0469 5.05999 33.7923 4.77999C33.5377 4.49199 33.4422 4.13199 33.5059 3.69999C33.5695 3.27599 33.7645 2.91999 34.0907 2.63199C34.4249 2.34399 34.8068 2.19999 35.2364 2.19999C35.6502 2.19999 35.9804 2.34399 36.2271 2.63199C36.4817 2.91999 36.5811 3.27599 36.5254 3.69999C36.4618 4.13199 36.2668 4.49199 35.9406 4.77999C35.6223 5.05999 35.2484 5.19999 34.8187 5.19999Z" fill="url(#paint2_linear_103_668)"/>
<path d="M44.8673 15.136L47.2782 16.564C46.6257 17.316 45.8539 17.92 44.9628 18.376C44.0716 18.832 43.1367 19.06 42.158 19.06C41.06 19.06 40.0973 18.776 39.2698 18.208C38.4502 17.64 37.8375 16.88 37.4318 15.928C37.0339 14.968 36.9146 13.908 37.0737 12.748C37.1931 11.868 37.4596 11.048 37.8733 10.288C38.2951 9.51999 38.8202 8.84799 39.4488 8.27199C40.0774 7.68799 40.7736 7.23199 41.5374 6.90399C42.3092 6.57599 43.1049 6.41199 43.9244 6.41199C44.9031 6.41199 45.7744 6.63999 46.5382 7.09599C47.31 7.55199 47.9147 8.16399 48.3523 8.93199L45.5237 10.348C45.285 10.028 44.9906 9.77999 44.6405 9.60399C44.2904 9.42799 43.9165 9.33999 43.5186 9.33999C42.9378 9.33999 42.3967 9.49999 41.8955 9.81999C41.3942 10.132 40.9725 10.548 40.6304 11.068C40.2882 11.58 40.0734 12.14 39.9859 12.748C39.9063 13.348 39.962 13.908 40.153 14.428C40.3519 14.94 40.6582 15.352 41.0719 15.664C41.4937 15.976 41.991 16.132 42.5638 16.132C42.9776 16.132 43.3834 16.044 43.7812 15.868C44.187 15.684 44.549 15.44 44.8673 15.136Z" fill="url(#paint3_linear_103_668)"/>
<path d="M59.4195 18.748H56.0658L54.001 14.032L52.0436 16.036L51.6737 18.748H48.7615L51.2679 0.747986H54.18L52.6762 11.488L57.2951 6.74799H61.1024L56.3283 11.656L59.4195 18.748Z" fill="url(#paint4_linear_103_668)"/>
<path d="M62.8218 6.74799H65.7339L64.063 18.748H61.1508L62.8218 6.74799ZM64.5165 5.19999C64.0869 5.19999 63.7447 5.05999 63.4901 4.77999C63.2355 4.49199 63.14 4.13199 63.2037 3.69999C63.2673 3.27599 63.4623 2.91999 63.7885 2.63199C64.1227 2.34399 64.5046 2.19999 64.9343 2.19999C65.348 2.19999 65.6782 2.34399 65.9249 2.63199C66.1795 2.91999 66.2789 3.27599 66.2233 3.69999C66.1596 4.13199 65.9647 4.49199 65.6384 4.77999C65.3202 5.05999 64.9462 5.19999 64.5165 5.19999Z" fill="url(#paint5_linear_103_668)"/>
<path d="M74.5942 9.67599H72.2788L71.0137 18.748H68.1015L69.3667 9.67599H67.6003L68.0061 6.74799H69.7724L70.2976 2.97999H73.2098L72.6846 6.74799H75L74.5942 9.67599Z" fill="url(#paint6_linear_103_668)"/>
<defs>
<linearGradient id="paint0_linear_103_668" x1="-0.0458201" y1="12.748" x2="75.543" y2="12.748" gradientUnits="userSpaceOnUse">
<stop stop-color="#205BF1"/>
<stop offset="0.708333" stop-color="white"/>
</linearGradient>
<linearGradient id="paint1_linear_103_668" x1="-0.0458201" y1="12.748" x2="75.543" y2="12.748" gradientUnits="userSpaceOnUse">
<stop stop-color="#205BF1"/>
<stop offset="0.708333" stop-color="white"/>
</linearGradient>
<linearGradient id="paint2_linear_103_668" x1="-0.0458201" y1="12.748" x2="75.543" y2="12.748" gradientUnits="userSpaceOnUse">
<stop stop-color="#205BF1"/>
<stop offset="0.708333" stop-color="white"/>
</linearGradient>
<linearGradient id="paint3_linear_103_668" x1="-0.0458201" y1="12.748" x2="75.543" y2="12.748" gradientUnits="userSpaceOnUse">
<stop stop-color="#205BF1"/>
<stop offset="0.708333" stop-color="white"/>
</linearGradient>
<linearGradient id="paint4_linear_103_668" x1="-0.0458201" y1="12.748" x2="75.543" y2="12.748" gradientUnits="userSpaceOnUse">
<stop stop-color="#205BF1"/>
<stop offset="0.708333" stop-color="white"/>
</linearGradient>
<linearGradient id="paint5_linear_103_668" x1="-0.0458201" y1="12.748" x2="75.543" y2="12.748" gradientUnits="userSpaceOnUse">
<stop stop-color="#205BF1"/>
<stop offset="0.708333" stop-color="white"/>
</linearGradient>
<linearGradient id="paint6_linear_103_668" x1="-0.0458201" y1="12.748" x2="75.543" y2="12.748" gradientUnits="userSpaceOnUse">
<stop stop-color="#205BF1"/>
<stop offset="0.708333" stop-color="white"/>
</linearGradient>
</defs>
</svg>
